# xmcd
#
# Track frame offsets: 
#        150
#        52076
#        80182
#        107049
#        117110
#        139911
#        175438
#
# Disc length: 2863 seconds
#
# Revision: 0
# Processed by: cddbd v1.5.2PL0 Copyright (c) Steve Scherf et al.
# Submitted via: ExactAudioCopyFreeDBPlugin 1.0
#
DISCID=650b2d07
DTITLE=The Trona Experience - White Universe
DYEAR=2014
DGENRE=stoner rock
TTITLE0=Diamond
TTITLE1=Lapis LAzuli
TTITLE2=Empressite
TTITLE3=Aquamarine
TTITLE4=Abiogenic
TTITLE5=Silver
TTITLE6=White Universe
EXTD=
EXTT0=
EXTT1=
EXTT2=
EXTT3=
EXTT4=
EXTT5=
EXTT6=
PLAYORDER=
